<svg xmlns="http://www.w3.org/2000/svg" viewBox="0 0 22.5 19.3"><g id="Layer_2" data-name="Layer 2"><g id="Layer_1-2" data-name="Layer 1"><path d="M18.36,15.51a3.79,3.79,0,0,1-7.58,0,3.81,3.81,0,0,1,3.81-3.76A3.77,3.77,0,0,1,18.36,15.51Zm-2.57-.9a1,1,0,0,0-.48-1,.65.65,0,0,1-.4-.74s0,0,0,0h-.67a1.33,1.33,0,0,0,0,.2.44.44,0,0,1-.27.5,1.2,1.2,0,0,0,0,2.06,1.7,1.7,0,0,0,.67.21c.31.06.51.23.53.5a.53.53,0,0,1-.42.56.55.55,0,0,1-.62-.39c0-.05-.05-.12-.09-.12h-.64a1.12,1.12,0,0,0,.47.94c.32.19.53.39.4.8h.71a1.28,1.28,0,0,0,0-.19.46.46,0,0,1,.29-.52,1.19,1.19,0,0,0,.44-1.61,1.28,1.28,0,0,0-1.09-.67.54.54,0,0,1-.53-.49.53.53,0,0,1,.47-.55c.28,0,.48.12.62.5Z"/><path d="M10.12,2.74a7,7,0,0,1,2.2.69A6.86,6.86,0,0,1,15.5,6.72a6.79,6.79,0,0,1,.6,3.82.23.23,0,0,1-.2.23c-.44.12-.86.27-1.3.41A5.53,5.53,0,0,0,12.9,5.5,5.6,5.6,0,0,0,7,4.45a4.41,4.41,0,0,0-1.17-1c.45-.18.85-.35,1.26-.49s.65-.15,1-.24c.06,0,.16-.1.15-.14s.12-.33-.11-.42a.89.89,0,0,1-.6-.92,3.53,3.53,0,0,1,0-.46A.82.82,0,0,1,8.37,0H10a.82.82,0,0,1,.82.84c0,.17,0,.34,0,.51a.84.84,0,0,1-.55.83.25.25,0,0,0-.13.17A2.4,2.4,0,0,0,10.12,2.74Z"/><path d="M1.2,8.58c-.1-.24-.2-.46-.31-.69A.2.2,0,0,0,.74,7.8a3.25,3.25,0,0,0-.44,0c-.19,0-.29-.1-.29-.29S0,7,0,6.69s.11-.32.3-.3A.6.6,0,0,0,1,5.89c.08-.27.09-.42-.11-.61s-.32-.38,0-.72l.44-.44a.23.23,0,0,1,.38,0,.66.66,0,0,0,1,.14C2.88,4.12,3,4,3,3.81V3.7c0-.37.08-.43.44-.43h.65c.19,0,.31.1.3.28,0,.43.15.62.55.74.24.08.38.08.53-.11A1.19,1.19,0,0,1,5.64,4a.26.26,0,0,1,.41,0l.54.54c.14.14.17.29,0,.42a.68.68,0,0,0-.13,1c.11.19.19.3.4.28a1.76,1.76,0,0,1,.23,0c.21,0,.33.09.33.32s0,.5,0,.75-.07.32-.26.3c-.47,0-.66.19-.78.6a.36.36,0,0,0,.08.44c.41.43.4.44,0,.87l-.34.34c-.13.14-.28.17-.4,0a.67.67,0,0,0-1-.13c-.19.11-.31.19-.28.42a1.77,1.77,0,0,1,0,.23.29.29,0,0,1-.34.32c-.23,0-.46,0-.69,0s-.34-.09-.36-.34v0a.55.55,0,0,0-.42-.61.59.59,0,0,0-.77.16c-.23.25-.31.23-.55,0l-.5-.49a.25.25,0,0,1,0-.4C1,8.86,1.08,8.72,1.2,8.58ZM1.57,7A2.19,2.19,0,0,0,3.73,9.16,2.21,2.21,0,0,0,5.9,7,2.17,2.17,0,0,0,1.57,7Z"/><path d="M10.41,15.17l.09,1.33a6.38,6.38,0,0,1-1.63.13,6.79,6.79,0,0,1-4.26-1.7,6.85,6.85,0,0,1-2.38-4.57c0-.12-.06-.27.12-.31a.43.43,0,0,1,.37.28,2.57,2.57,0,0,0,.08.38.63.63,0,0,0,.7.38c.19,0,.27.05.33.24a5.61,5.61,0,0,0,5.62,4C9.77,15.27,10.09,15.21,10.41,15.17Z"/><path d="M20.94,11.51a.54.54,0,0,0,.75,0c.15.1.31.18.45.29.47.36.49.7,0,1a5,5,0,0,1-1.41.6,21,21,0,0,1-2.23.3.31.31,0,0,1-.22-.11,4.12,4.12,0,0,0-2.94-2.13l-.09,0a7.61,7.61,0,0,1,2.86-.5,8.71,8.71,0,0,0,.61.68.51.51,0,0,0,.71,0c.25.49.4.57,1.08.48C20.78,12,20.9,11.8,20.94,11.51Z"/><path d="M9.94,7.75c0,.3,0,.6,0,.9a.26.26,0,0,0,.14.26,1.12,1.12,0,0,1-1.06,2,.3.3,0,0,0-.36,0l-1.2.88a.48.48,0,0,1-.7,0,.5.5,0,0,1,.17-.69c.43-.31.86-.61,1.28-.93a.48.48,0,0,0,.15-.28,1.12,1.12,0,0,1,.51-.91A.33.33,0,0,0,9,8.62C9,8.08,9,7.53,9,7a1.85,1.85,0,0,1,0-.23.47.47,0,0,1,.46-.43.45.45,0,0,1,.43.46c0,.32,0,.64,0,1Z"/><path d="M22.48,17c0,.34,0,.69,0,1a.75.75,0,0,1-.43.6,4.44,4.44,0,0,1-1.55.52,13.89,13.89,0,0,1-3.7.14l-.19,0c.22-.18.45-.33.64-.51A6,6,0,0,0,17.9,18a.48.48,0,0,1,.41-.2,10.55,10.55,0,0,0,3.11-.41C21.77,17.27,22.11,17.1,22.48,17Z"/><path d="M21.33,11.3c-.07,0-.11-.05-.14-.09s-.27-.12-.45-.05a.27.27,0,0,0-.18.28c0,.19-.07.28-.27.26a.55.55,0,0,0-.18,0c-.19,0-.31-.05-.3-.25s-.18-.26-.32-.31a.37.37,0,0,0-.27.1c-.14.13-.25.12-.36,0l-.17-.17c-.13-.11-.12-.22,0-.35a.36.36,0,0,0-.27-.58c-.17,0-.27-.09-.25-.28a.54.54,0,0,0,0-.18c0-.19,0-.3.25-.29s.26-.17.29-.32a.35.35,0,0,0-.08-.27c-.12-.14-.15-.24,0-.36a1.29,1.29,0,0,0,.16-.17.22.22,0,0,1,.37,0c.08.07.15.15.28.07s.33-.09.3-.32.1-.29.3-.27h.16c.19,0,.3.06.29.26s0,.2.16.23.28.17.41,0,.28-.17.41,0l.13.13c.16.12.15.24,0,.39a.3.3,0,0,0-.08.25c.06.13.07.35.32.32s.29.08.27.29a.74.74,0,0,0,0,.21c0,.17-.06.26-.22.24s-.24.18-.32.32,0,.22.1.29.13.23,0,.34ZM20.16,8.56A1.14,1.14,0,1,0,21.29,9.7,1.13,1.13,0,0,0,20.16,8.56Z"/><path d="M18.8,15.59l-.27-1.54a7.55,7.55,0,0,0,3.91-1,12.63,12.63,0,0,1,0,1.38c0,.28-.3.42-.53.54a5.88,5.88,0,0,1-1.92.51C19.58,15.53,19.17,15.56,18.8,15.59Z"/><path d="M18.36,17.47c.12-.51.22-.95.34-1.39a.28.28,0,0,1,.19-.11c.69-.1,1.39-.16,2.09-.28a3.34,3.34,0,0,0,1.47-.62,6.58,6.58,0,0,1,0,1.18.93.93,0,0,1-.42.49,4.17,4.17,0,0,1-1.69.52C19.67,17.34,19,17.4,18.36,17.47Z"/></g></g></svg>