<svg xmlns="http://www.w3.org/2000/svg" viewBox="0 0 25.27 25.27"><g id="Layer_2" data-name="Layer 2"><g id="Layer_1-2" data-name="Layer 1"><path d="M12.44,0h.4a.15.15,0,0,0,.07,0A1.67,1.67,0,0,1,14.3,1.59,1.65,1.65,0,0,1,13,3.28c-.12,0-.14.09-.14.2,0,.69,0,1.38,0,2.08,0,.05,0,.1,0,.16a7,7,0,0,1,4.37,1.77L19,5.78a1.65,1.65,0,1,1,.46.48L17.75,8a6.9,6.9,0,0,1,1.81,4.38h2.2c.16,0,.22,0,.26-.19a1.65,1.65,0,0,1,2.77-.68,2,2,0,0,1,.48,1v.4l0,.07a1.65,1.65,0,0,1-1.52,1.38A1.64,1.64,0,0,1,22,13.08a.16.16,0,0,0-.19-.13H19.56a6.86,6.86,0,0,1-1.77,4.31L19.49,19a1.66,1.66,0,0,1,2.09,2.56,1.65,1.65,0,0,1-2.1.22,1.68,1.68,0,0,1-.48-2.3l-1.69-1.7a6.94,6.94,0,0,1-4.37,1.8v.23c0,.65,0,1.3,0,1.95a.24.24,0,0,0,.2.28,1.65,1.65,0,0,1,.68,2.75,1.91,1.91,0,0,1-1,.49h-.4l-.1,0A1.67,1.67,0,0,1,11,23.7,1.64,1.64,0,0,1,12.2,22c.13,0,.14-.11.14-.21v-2a1.37,1.37,0,0,0,0-.19A6.93,6.93,0,0,1,8,17.79l-1.7,1.7a1.67,1.67,0,0,1-2.55,2.12,1.69,1.69,0,0,1-.27-2.09,1.59,1.59,0,0,1,.86-.69,1.69,1.69,0,0,1,1.5.19l1.69-1.69A7.06,7.06,0,0,1,5.71,13H3.29l0,.15a1.65,1.65,0,0,1-2.77.62A2,2,0,0,1,0,12.84v-.36l.05-.2a1.66,1.66,0,0,1,3.21-.1l.06.2H5.71A7,7,0,0,1,7.47,8L5.75,6.31a1.67,1.67,0,1,1,0-2.82,1.63,1.63,0,0,1,.67.88,1.69,1.69,0,0,1-.22,1.48l1.7,1.7a7,7,0,0,1,4.33-1.83V3.29l-.13,0A1.66,1.66,0,0,1,11.52.44,2,2,0,0,1,12.44,0Zm5.13,12.64a4.94,4.94,0,1,0-4.93,4.93A4.95,4.95,0,0,0,17.57,12.64Z"/><path d="M9.65,13c.09.51.19,1,.28,1.5a.19.19,0,0,1,0,.15l-.72.57A4.13,4.13,0,0,1,8.35,13Z"/><path d="M9.17,10.09l.71.56a.15.15,0,0,1,0,.13c-.09.5-.19,1-.28,1.53H8.35A4,4,0,0,1,9.17,10.09Z"/><path d="M16.93,12.31h-1.3c-.1-.51-.2-1-.29-1.52a.21.21,0,0,1,.07-.15l.7-.55A4.26,4.26,0,0,1,16.93,12.31Z"/><path d="M16.93,13a4.26,4.26,0,0,1-.82,2.22c-.25-.19-.49-.37-.73-.57a.12.12,0,0,1,0-.11c.09-.51.19-1,.29-1.54Z"/><path d="M14.53,14.85A3.76,3.76,0,0,1,13,16.77V14.44A4.06,4.06,0,0,1,14.53,14.85Z"/><path d="M14.57,10.47,13,10.9V8.49A4,4,0,0,1,14.57,10.47Z"/><path d="M12.31,8.49v2.34a3.83,3.83,0,0,1-1.58-.42A4,4,0,0,1,12.31,8.49Z"/><path d="M12.31,16.79a4.11,4.11,0,0,1-1.58-1.92,4.09,4.09,0,0,1,1.58-.43Z"/><path d="M10.49,14.21,10.3,13h2v.78Z"/><path d="M12.31,11.53v.78h-2l.19-1.25Z"/><path d="M14.79,14.21,13,13.74V13h2Z"/><path d="M13,12.31v-.78l1.82-.46L15,12.31Z"/><path d="M14.2,8.63a4,4,0,0,1,1.49,1l-.55.47Z"/><path d="M15.14,15.2l.55.47a4,4,0,0,1-1.49,1Z"/><path d="M11.08,16.65a4,4,0,0,1-1.49-1l.55-.46Z"/><path d="M10.14,10.07l-.55-.46a3.87,3.87,0,0,1,1.49-1Z"/></g></g></svg>