<svg xmlns="http://www.w3.org/2000/svg" viewBox="0 0 34.58 19.4"><g id="Layer_2" data-name="Layer 2"><g id="Layer_1-2" data-name="Layer 1"><path d="M20.45,10a5.66,5.66,0,0,1-.64-.95,1.47,1.47,0,0,1,1.4-2c1,0,2,.13,3.06.2a4.26,4.26,0,0,1,.8.09,1.44,1.44,0,0,1,1.07,1.77c-.17.67-.37,1.34-.54,2-.08.3-.14.62-.22.93A1.53,1.53,0,0,1,24,13.35a1.56,1.56,0,0,1-1.5-.95.48.48,0,0,0-.08-.11l-2.15,1.55c-1.81,1.3-3.6,2.61-5.42,3.88a9.25,9.25,0,0,1-4.75,1.66,9.21,9.21,0,0,1-7.32-2.66A8.92,8.92,0,0,1,.07,11.15,9.51,9.51,0,0,1,3.32,2.72,10.36,10.36,0,0,1,9.4.06a10.49,10.49,0,0,1,6,1.16,1.49,1.49,0,0,1,.65,2,1.47,1.47,0,0,1-2,.68,8.33,8.33,0,0,0-2.61-.85,7.82,7.82,0,0,0-3.89.47A7.47,7.47,0,0,0,3.79,6.89a6.51,6.51,0,0,0,.82,7.4A6.32,6.32,0,0,0,9.83,16.4a6.33,6.33,0,0,0,3.43-1.23c2.11-1.5,4.22-3,6.32-4.53a3.11,3.11,0,0,0,.25-.2Z"/><path d="M14.13,9.39a5.66,5.66,0,0,1,.64.95,1.47,1.47,0,0,1-1.41,2c-1,0-2-.13-3-.2A4.37,4.37,0,0,1,9.5,12a1.44,1.44,0,0,1-1.06-1.77c.16-.68.36-1.34.54-2,.08-.3.14-.62.22-.93a1.53,1.53,0,0,1,1.38-1.26,1.56,1.56,0,0,1,1.5,1,.9.9,0,0,0,.07.11l2.16-1.55c1.81-1.3,3.6-2.61,5.42-3.89A9.27,9.27,0,0,1,24.48,0,9.21,9.21,0,0,1,31.8,2.68a8.89,8.89,0,0,1,2.71,5.57,9.52,9.52,0,0,1-3.26,8.43,10.31,10.31,0,0,1-6.07,2.66,10.53,10.53,0,0,1-6.06-1.16,1.49,1.49,0,0,1-.64-2,1.46,1.46,0,0,1,2-.68,8.25,8.25,0,0,0,2.61.85,7.77,7.77,0,0,0,3.88-.47,7.45,7.45,0,0,0,3.86-3.35A6.51,6.51,0,0,0,30,5.11a6.54,6.54,0,0,0-8.66-.88L15,8.76l-.25.2Z"/></g></g></svg>