<svg xmlns="http://www.w3.org/2000/svg" viewBox="0 0 20.17 20.17"><g id="Layer_2" data-name="Layer 2"><g id="Layer_1-2" data-name="Layer 1"><path d="M4.39,17c-.24-.23-.47-.43-.68-.65S3.1,15.55,2.48,16c-.12.09-.58-.11-.74-.3a7.1,7.1,0,0,1-.69-1.13.68.68,0,0,1,.27-1.11c.29-.14.35-.31.24-.62s-.25-.88-.38-1.35l-.55,0A.59.59,0,0,1,0,10.84c0-.52,0-1.05,0-1.57,0-.75.66-.61,1.16-.67l.46-1.71c-.24-.2-.57-.34-.64-.56a1.18,1.18,0,0,1,.12-.88c.35-.51.39-1.31,1.18-1.4.24,0,.52.18.79.29L4.34,3l-.2-.39a.6.6,0,0,1,.24-.88c.3-.2.63-.37.94-.55.82-.47.81-.46,1.43.25a.55.55,0,0,0,.45.12c.47-.1.93-.25,1.43-.38,0-.15,0-.31,0-.47A.65.65,0,0,1,9.39,0h1c1.05,0,1.12.06,1.19,1.16.5.14,1,.31,1.54.41.12,0,.33-.15.43-.29A.69.69,0,0,1,14.59,1c.31.19.63.36.95.55.69.41.74.57.35,1.3l-.09.2,1.35,1.26c.07,0,.23-.11.38-.2a.61.61,0,0,1,.9.21,14.07,14.07,0,0,1,.78,1.36c.34.68-.28.85-.67,1.16L19,8.6l.51,0a.63.63,0,0,1,.67.69v1.21c0,.77-.1.88-.85.93l-.31,0c-.14.5-.31,1-.4,1.46a.61.61,0,0,0,.25.49.71.71,0,0,1,.27,1.12c-.19.31-.36.63-.55.94-.37.63-.58.69-1.22.37l-.28-.12-1.24,1.34a3.61,3.61,0,0,0,.17.33.65.65,0,0,1-.25,1c-.41.25-.83.5-1.26.72-.69.35-.92-.21-1.18-.66a15.19,15.19,0,0,0-1.48.39.64.64,0,0,0-.3.46c-.08.7-.22.85-.9.85-.38,0-.77,0-1.15,0-.56,0-.85-.24-.83-.79,0-.37-.09-.54-.48-.59a8.18,8.18,0,0,1-1.27-.33c-.7,1-.7,1-1.75.37-.1-.07-.21-.12-.31-.18C3.88,18.09,3.86,18,4.39,17Zm5.78,1.09h0a2.26,2.26,0,0,0,.78,0,1.77,1.77,0,0,0,.85-.62,1,1,0,0,1,.62-.56,7.2,7.2,0,0,0-1.76-14,7.2,7.2,0,0,0-3,14c.42.15.8.25.95.78.06.2.46.36.72.43A3,3,0,0,0,10.17,18.1Z"/><path d="M10,15.61H9.9c-1.52,0-1.48,0-1.65-1.51A1.93,1.93,0,0,0,7.61,13,3.72,3.72,0,0,1,6.53,8.84a3.8,3.8,0,0,1,7.09.07A3.57,3.57,0,0,1,12.53,13a1.76,1.76,0,0,0-.73,1.45c0,1.08-.13,1.2-1.23,1.2Zm-.41-4.85a9.07,9.07,0,0,0-.7-.84c-.08-.08-.28,0-.43-.06,0,.16-.05.37,0,.47.23.3.54.54.78.84s.43.29.68,0c.53-.54,1.09-1.07,1.6-1.63.12-.12.1-.37.15-.56-.19,0-.44,0-.56.13C10.67,9.61,10.22,10.12,9.61,10.76Z"/><path d="M10.2,15.91a6.92,6.92,0,0,1,1,0c.13,0,.22.22.33.33-.11.09-.22.25-.34.26-.7,0-1.41,0-2.11,0-.12,0-.23-.18-.34-.27.12-.11.22-.31.35-.32A7.9,7.9,0,0,1,10.2,15.91Z"/><path d="M10.2,16.87a3.35,3.35,0,0,1,.71,0c.14,0,.24.21.35.32-.11.1-.22.26-.34.27a10.73,10.73,0,0,1-1.5,0c-.12,0-.23-.21-.34-.32.11-.09.21-.25.34-.27A5,5,0,0,1,10.2,16.87Z"/><path d="M13.22,5.6l-.78.88c-.1-.09-.3-.25-.28-.28a7,7,0,0,1,.61-.89A4,4,0,0,1,13.22,5.6Z"/><path d="M5.3,10.76l-.65-.54A2,2,0,0,1,5.29,10a1.89,1.89,0,0,1,.64.25Z"/><path d="M14.9,10.76l-.66-.54a1.8,1.8,0,0,1,.64-.26,1.94,1.94,0,0,1,.65.25Z"/><path d="M9.67,5.15l.53-.56a2.35,2.35,0,0,1,.25.7c0,.18-.17.38-.26.56Z"/><path d="M5.7,7.12l.85.81c-.12.09-.3.29-.33.27-.3-.2-.58-.43-.86-.65Z"/><path d="M15,7.57A11.87,11.87,0,0,1,14,8.19c-.06,0-.22-.17-.33-.27.29-.22.57-.45.88-.64C14.57,7.25,14.74,7.41,15,7.57Z"/><path d="M7.67,5.23c.17.31.36.61.5.93,0,.06-.16.21-.25.32a8.48,8.48,0,0,1-.63-.85c0-.07.11-.24.17-.36Z"/></g></g></svg>