<?xml version="1.0" encoding="utf-8"?>
<!-- Generator: Adobe Illustrator 26.0.1, SVG Export Plug-In . SVG Version: 6.00 Build 0)  -->
<svg version="1.1" id="Layer_1" xmlns="http://www.w3.org/2000/svg" xmlns:xlink="http://www.w3.org/1999/xlink" x="0px" y="0px"
	 viewBox="0 0 232.6 76.1" style="enable-background:new 0 0 232.6 76.1;" xml:space="preserve">
<style type="text/css">
	.st0{fill:#1974B8;}
	.st1{fill:#BBA14E;}
</style>
<g>
	<g>
		<path class="st0" d="M56.7,42.4c0-1.6,0.3-2.7,0.9-3.3c0.6-0.6,1.7-0.9,3.4-0.9h12.8c1.7,0,2.8,0.3,3.4,0.9s0.9,1.7,0.9,3.3v9.4
			c0,1.6-0.3,2.7-0.9,3.3c-0.6,0.6-1.7,0.9-3.4,0.9H61c-1.7,0-2.8-0.3-3.4-0.9c-0.6-0.6-0.9-1.7-0.9-3.3V42.4z M60.8,52.7h13.4V41.4
			H60.8V52.7z"/>
		<path class="st0" d="M86.7,56.1V38.2h14.9c1.4,0,2.4,0.3,3,0.8c0.6,0.5,0.9,1.4,0.9,2.6v4c0,1.2-0.3,2.1-0.9,2.6
			c-0.6,0.5-1.6,0.8-3,0.8H90.7v7H86.7z M99.9,41.3h-9.1V46h9.1c0.7,0,1.2-0.1,1.4-0.3c0.3-0.2,0.4-0.6,0.4-1.1v-1.9
			c0-0.5-0.1-0.9-0.4-1.1C101,41.4,100.6,41.3,99.9,41.3z"/>
		<path class="st0" d="M120,41.4v14.7h-4.1V41.4h-8v-3.2H128v3.2H120z"/>
		<path class="st0" d="M133,56.1V38.2h4.1v17.9H133z"/>
		<path class="st0" d="M145.9,56.1V38.2h3.3l8.2,10.8l8-10.8h3.2v17.9h-3.8V45c0-0.2,0-0.5,0-0.8s0.1-0.7,0.1-1.1
			c-0.2,0.5-0.4,0.8-0.6,1.1s-0.3,0.5-0.4,0.7l-6.5,8.9h-0.8l-6.6-9c-0.2-0.3-0.4-0.7-0.6-1s-0.3-0.6-0.4-0.9c0,0.4,0.1,0.7,0.1,1
			c0,0.3,0,0.6,0,0.9v11H145.9z"/>
		<path class="st0" d="M181.2,38.2v14.5h11.6V38.2h4v13.7c0,1.6-0.3,2.7-0.9,3.3c-0.6,0.6-1.7,0.9-3.4,0.9h-11
			c-1.7,0-2.8-0.3-3.4-0.9c-0.6-0.6-0.9-1.7-0.9-3.3V38.2H181.2z"/>
		<path class="st0" d="M205.7,56.1V38.2h3.3l8.2,10.8l8-10.8h3.2v17.9h-3.8V45c0-0.2,0-0.5,0-0.8s0.1-0.7,0.1-1.1
			c-0.2,0.5-0.4,0.8-0.6,1.1s-0.3,0.5-0.4,0.7l-6.5,8.9h-0.8l-6.6-9c-0.2-0.3-0.4-0.7-0.6-1s-0.3-0.6-0.4-0.9c0,0.4,0.1,0.7,0.1,1
			c0,0.3,0,0.6,0,0.9v11H205.7z"/>
	</g>
	<g>
		<g>
			<path class="st1" d="M57.3,64.5h6.3c1.1,0,1.6,0.4,1.6,1.5v0.9c0,0.7-0.2,1.2-1.3,1.4c0.9,0.1,1.3,0.7,1.3,1.6v1
				c0,1.1-0.7,1.6-2.2,1.6h-5.8V64.5z M63.9,66.2c0-0.6-0.2-0.7-0.8-0.7h-4.5v2.2h4.5c0.6,0,0.8-0.2,0.8-0.7V66.2z M63.9,69.7
				c0-0.7-0.2-1-0.9-1h-4.5v2.6h4.5c0.6,0,0.9-0.2,0.9-0.9V69.7z"/>
			<path class="st1" d="M69.5,71.5h4.7v-5.6h1.2v5c0,1.2-0.3,1.5-1.6,1.5h-4c-1.2,0-1.6-0.3-1.6-1.5v-5h1.2V71.5z"/>
			<path class="st1" d="M79.5,66.9v1.7h4.1c1.2,0,1.6,0.4,1.6,1.5v0.8c0,1.2-0.3,1.5-1.6,1.5h-3.9c-1.2,0-1.6-0.3-1.6-1.5v-0.2
				l1.1-0.2v1h4.8v-1.8H80c-1.2,0-1.6-0.3-1.6-1.5v-0.6c0-1.2,0.4-1.6,1.6-1.6h3.6c1.1,0,1.6,0.3,1.6,1.4v0.2L84,67.7v-0.9H79.5z"/>
			<path class="st1" d="M87.9,72.4v-6.6h1.2v6.6H87.9z"/>
			<path class="st1" d="M93.2,68.4v4.1h-1.1v-6.6H93l4.7,4.3c0.3,0.3,0.5,0.6,0.8,0.9c-0.1-0.4-0.1-0.8-0.1-1.2v-4h1.1v6.6h-0.8
				l-4.8-4.4c-0.3-0.3-0.5-0.5-0.8-0.9C93.2,67.6,93.2,68,93.2,68.4z"/>
			<path class="st1" d="M102.4,65.9h6.4v1h-5.2v1.7h3.2v1h-3.2v2h5.3v1h-6.5V65.9z"/>
			<path class="st1" d="M112.4,66.9v1.7h4.1c1.2,0,1.6,0.4,1.6,1.5v0.8c0,1.2-0.3,1.5-1.6,1.5h-3.9c-1.2,0-1.6-0.3-1.6-1.5v-0.2
				l1.1-0.2v1h4.8v-1.8h-4.1c-1.2,0-1.6-0.3-1.6-1.5v-0.6c0-1.2,0.4-1.6,1.6-1.6h3.6c1.1,0,1.6,0.3,1.6,1.4v0.2l-1.1,0.2v-0.9H112.4
				z"/>
			<path class="st1" d="M122,66.9v1.7h4.1c1.2,0,1.6,0.4,1.6,1.5v0.8c0,1.2-0.3,1.5-1.6,1.5h-3.9c-1.2,0-1.6-0.3-1.6-1.5v-0.2
				l1.1-0.2v1h4.8v-1.8h-4.1c-1.2,0-1.6-0.3-1.6-1.5v-0.6c0-1.2,0.4-1.6,1.6-1.6h3.6c1.1,0,1.6,0.3,1.6,1.4v0.2l-1.1,0.2v-0.9H122z"
				/>
			<path class="st1" d="M137.7,65.5v2.2h4.9c1.4,0,1.8,0.4,1.8,1.9v0.9c0,1.5-0.4,1.9-1.8,1.9h-4.5c-1.4,0-1.8-0.4-1.8-1.9v-0.2
				l1.2-0.3v1.3h5.8v-2.4h-4.9c-1.4,0-1.8-0.4-1.8-1.9v-0.7c0-1.5,0.4-1.9,1.8-1.9h4.2c1.3,0,1.8,0.4,1.8,1.8v0.2l-1.1,0.3v-1.2
				H137.7z"/>
			<path class="st1" d="M149.3,65.9h4.6c1.2,0,1.6,0.4,1.6,1.6v3.5c0,1.2-0.4,1.5-1.6,1.5h-4.6c-1.2,0-1.6-0.3-1.6-1.5v-3.5
				C147.7,66.2,148.1,65.9,149.3,65.9z M154.3,71.5v-4.6h-5.3v4.6H154.3z"/>
			<path class="st1" d="M158.3,65.9h1.2v5.6h5v1h-6.2V65.9z"/>
			<path class="st1" d="M167.5,71.5h4.7v-5.6h1.2v5c0,1.2-0.3,1.5-1.6,1.5h-4c-1.2,0-1.6-0.3-1.6-1.5v-5h1.2V71.5z"/>
			<path class="st1" d="M179.5,72.4h-1.2v-5.6h-3v-1h7.3v1h-3V72.4z"/>
			<path class="st1" d="M184.3,72.4v-6.6h1.2v6.6H184.3z"/>
			<path class="st1" d="M189.9,65.9h4.6c1.2,0,1.6,0.4,1.6,1.6v3.5c0,1.2-0.4,1.5-1.6,1.5h-4.6c-1.2,0-1.6-0.3-1.6-1.5v-3.5
				C188.3,66.2,188.6,65.9,189.9,65.9z M194.8,71.5v-4.6h-5.3v4.6H194.8z"/>
			<path class="st1" d="M200,68.4v4.1h-1.1v-6.6h0.9l4.7,4.3c0.3,0.3,0.5,0.6,0.8,0.9c-0.1-0.4-0.1-0.8-0.1-1.2v-4h1.1v6.6h-0.8
				l-4.8-4.4c-0.3-0.3-0.5-0.5-0.8-0.9C199.9,67.6,200,68,200,68.4z"/>
			<path class="st1" d="M210.4,66.9v1.7h4.1c1.2,0,1.6,0.4,1.6,1.5v0.8c0,1.2-0.3,1.5-1.6,1.5h-3.9c-1.2,0-1.6-0.3-1.6-1.5v-0.2
				l1.1-0.2v1h4.8v-1.8h-4.1c-1.2,0-1.6-0.3-1.6-1.5v-0.6c0-1.2,0.4-1.6,1.6-1.6h3.6c1.1,0,1.6,0.3,1.6,1.4v0.2l-1.1,0.2v-0.9H210.4
				z"/>
		</g>
	</g>
	<path class="st0" d="M43.4,19.3c-2.3,0-4.5,0.9-6,2.5l-2.3-2.1c1.5-2,2.5-4.6,2.5-7.4C37.5,5.5,32,0,25.3,0S13,5.5,13,12.3
		c0,3.6,1.6,6.9,4.1,9.1L13,26.6c-1.2-0.7-2.6-1-4.1-1c-4.9,0-8.9,4-8.9,8.9c0,4.9,4,8.9,8.9,8.9c4.9,0,8.9-4,8.9-8.9
		c0-2.5-1-4.8-2.7-6.4l4.1-5.3c1.8,1.1,3.9,1.7,6.2,1.7c3.2,0,6.1-1.2,8.3-3.2l2.4,2.2c-0.7,1.3-1.2,2.7-1.2,4.3
		c0,4.7,3.8,8.6,8.6,8.6c4.7,0,8.6-3.8,8.6-8.6C51.9,23.1,48.1,19.3,43.4,19.3z M8.9,40.4c-3.3,0-5.9-2.6-5.9-5.9
		c0-3.3,2.6-5.9,5.9-5.9s5.9,2.6,5.9,5.9C14.8,37.7,12.1,40.4,8.9,40.4z M25.3,21.5c-5.1,0-9.3-4.2-9.3-9.3C16,7.1,20.1,3,25.3,3
		s9.3,4.2,9.3,9.3C34.5,17.4,30.4,21.5,25.3,21.5z M43.4,33.8c-3.3,0-5.9-2.7-5.9-5.9c0-3.3,2.7-5.9,5.9-5.9c3.3,0,5.9,2.7,5.9,5.9
		C49.3,31.1,46.6,33.8,43.4,33.8z"/>
	<path class="st0" d="M43.4,2.6c-2.8,0-5,2.2-5,5s2.2,5,5,5c2.8,0,5-2.2,5-5S46.1,2.6,43.4,2.6z M43.4,9.9c-1.3,0-2.3-1-2.3-2.3
		c0-1.3,1-2.3,2.3-2.3c1.3,0,2.3,1,2.3,2.3C45.7,8.9,44.6,9.9,43.4,9.9z"/>
	<path class="st0" d="M35.2,38.8c-1.1,0-2.2,0.2-3.1,0.6L29.8,37c0.9-0.9,1.5-2.2,1.5-3.7c0-2.9-2.3-5.2-5.2-5.2S21,30.4,21,33.3
		c0,2.9,2.3,5.2,5.2,5.2c0.5,0,1-0.1,1.4-0.2l2.2,2.4c-2,1.6-3.3,4-3.3,6.8c0,0.4,0,0.8,0.1,1.2l-5.8,1.7c-1-1.8-2.9-2.9-5.1-2.9
		c-3.3,0-5.9,2.6-5.9,5.9c0,3.3,2.6,5.9,5.9,5.9s5.9-2.6,5.9-5.9c0-0.3,0-0.6-0.1-0.8l5.7-1.7c1.3,3.1,4.4,5.3,8,5.3
		c4.8,0,8.7-3.9,8.7-8.7C43.8,42.7,40,38.8,35.2,38.8z M26.2,35.6c-1.3,0-2.3-1-2.3-2.3c0-1.3,1-2.3,2.3-2.3c1.3,0,2.3,1,2.3,2.3
		C28.6,34.6,27.5,35.6,26.2,35.6z M15.7,56.5c-1.7,0-3.2-1.4-3.2-3.1c0-1.7,1.4-3.2,3.2-3.2c1.7,0,3.2,1.4,3.2,3.2
		C18.8,55.1,17.4,56.5,15.7,56.5z M35.2,53.3c-3.3,0-5.9-2.6-5.9-5.9c0-3.3,2.6-5.9,5.9-5.9c3.3,0,5.9,2.6,5.9,5.9
		C41.1,50.7,38.4,53.3,35.2,53.3z"/>
	<path class="st0" d="M5.3,13.1c-2.6,0-4.8,2.1-4.8,4.8c0,2.7,2.2,4.8,4.8,4.8c2.6,0,4.8-2.1,4.8-4.8C10.1,15.3,8,13.1,5.3,13.1z
		 M5.3,20.3c-1.3,0-2.3-1-2.3-2.3c0-1.3,1-2.3,2.3-2.3c1.3,0,2.3,1,2.3,2.3C7.7,19.2,6.6,20.3,5.3,20.3z"/>
	<path class="st1" d="M34.6,65.5H15.2c-0.9,0-1.6-0.7-1.6-1.6v0c0-0.9,0.7-1.6,1.6-1.6h19.4c0.9,0,1.6,0.7,1.6,1.6v0
		C36.2,64.7,35.5,65.5,34.6,65.5z"/>
	<path class="st1" d="M34.6,70.5H15.2c-0.9,0-1.6-0.7-1.6-1.6l0,0c0-0.9,0.7-1.6,1.6-1.6h19.4c0.9,0,1.6,0.7,1.6,1.6l0,0
		C36.2,69.8,35.5,70.5,34.6,70.5z"/>
	<path class="st1" d="M28.4,76.1h-6.5c-2,0-3.7-1.7-3.7-3.7l0,0h13.9l0,0C32.1,74.4,30.4,76.1,28.4,76.1z"/>
</g>
</svg>
